<?xml version="1.0" encoding="utf-8"?>
<!-- Generator: Adobe Illustrator 28.1.0, SVG Export Plug-In . SVG Version: 6.00 Build 0)  -->
<svg version="1.1" id="Layer_1" xmlns="http://www.w3.org/2000/svg" xmlns:xlink="http://www.w3.org/1999/xlink" x="0px" y="0px"
	 viewBox="0 0 125 35" style="enable-background:new 0 0 25 35; " xml:space="preserve" >
<style type="text/css">
	.st0{fill:#0036E3;}
	
</style>
<g>
	<g>
		<path class="st0" d="M101,24.9h-2.5v-9.4h2.5V24.9z"/>
		<path class="st0" d="M101.8,17.2v-1.7h2.5v1.7H101.8z M101.8,24.9v-7h2.5v7H101.8z"/>
		<path class="st0" d="M104.8,23l2.2-0.5c0.2,0.7,0.6,0.9,1.2,0.9c0.5,0,0.7-0.1,0.7-0.4c0-0.3-0.2-0.5-1.3-0.7
			c-2-0.5-2.6-1.1-2.6-2.3c0-1.4,1-2.2,3.1-2.2c2.2,0,2.8,0.8,3.1,2l-2.2,0.5c-0.1-0.6-0.3-0.8-0.9-0.8c-0.5,0-0.7,0.1-0.7,0.4
			c0,0.3,0.1,0.5,1.3,0.7c2.3,0.5,2.7,1.3,2.7,2.4c0,1.4-1,2.3-3.2,2.3C105.6,25.2,104.9,24.2,104.8,23z"/>
		<path class="st0" d="M112,19.9h-0.7v-1.9h0.7v-1.7h2.5v1.7h1.6v1.9h-1.6v2.3c0,0.4,0.1,0.6,0.6,0.6c0.3,0,0.6-0.1,0.8-0.2l0.3,2.2
			c-0.6,0.2-0.9,0.3-1.8,0.3c-1.7,0-2.4-1.1-2.4-2.5V19.9z"/>
	</g>
	<g>
		<g>
			<path class="st0" d="M40.9,18.2h-1v-2.6h1v-2.3h3.3v2.3h2.1v2.6h-2.1v3.1c0,0.5,0.2,0.8,0.8,0.8c0.4,0,0.8-0.1,1.1-0.2l0.4,3
				c-0.8,0.2-1.2,0.4-2.3,0.4c-2.3,0-3.3-1.5-3.3-3.3V18.2z"/>
			<path class="st0" d="M52.4,22.7h-0.3c-0.4,1.4-1.3,2.4-2.9,2.4c-1.4,0-2.6-0.8-2.6-2.7c0-1.7,1-2.8,3.5-2.8h2.1V19
				c0-0.7-0.3-1.1-1-1.1c-0.6,0-1,0.3-1.1,1L47,18.2c0.3-1.6,1.5-2.9,4.3-2.9c3,0,4.2,1.3,4.2,3.7v5.9h-3.1V22.7z M52.3,21.3v-0.4
				h-1.4c-0.6,0-1.1,0.4-1.1,0.9c0,0.5,0.3,0.9,1.1,0.9C51.7,22.6,52.3,22.1,52.3,21.3z"/>
			<path class="st0" d="M59.9,24.9h-3.3V12.4h3.3V24.9z"/>
			<path class="st0" d="M60.6,20.5c0-3.3,1.7-5.2,4.9-5.2c2.9,0,4.3,1.7,4.3,4.2c0,0.4,0,0.8-0.1,1.3h-5.8c0.1,1.3,0.6,1.7,1.6,1.7
				c1,0,1.2-0.4,1.4-1l2.8,0.7c-0.4,1.5-1.4,2.8-4.2,2.8C62.6,25.2,60.6,23.7,60.6,20.5z M63.8,19.6h2.9c0-1.3-0.4-1.8-1.3-1.8
				C64.4,17.8,63.9,18.2,63.8,19.6z"/>
			<path class="st0" d="M73.8,24.9h-3.3v-9.3h3.2v2.5h0.2c0.6-1.9,1.6-2.8,3-2.8c1.6,0,2.5,1.2,2.5,3.2v6.4H76v-5.5
				c0-0.7-0.4-1.2-1-1.2c-0.8,0-1.2,0.6-1.2,1.5V24.9z"/>
			<path class="st0" d="M80.7,18.2h-1v-2.6h1v-2.3H84v2.3h2.1v2.6H84v3.1c0,0.5,0.2,0.8,0.8,0.8c0.4,0,0.8-0.1,1.1-0.2l0.4,3
				c-0.8,0.2-1.2,0.4-2.3,0.4c-2.3,0-3.3-1.5-3.3-3.3V18.2z"/>
			<path class="st0" d="M86.5,22.4l2.9-0.6c0.2,0.9,0.8,1.2,1.6,1.2c0.6,0,0.9-0.2,1-0.6c0-0.4-0.2-0.6-1.8-1
				c-2.6-0.6-3.5-1.4-3.5-3.1c0-1.9,1.3-3,4.2-3c2.9,0,3.8,1.1,4.1,2.7L92,18.6c-0.1-0.7-0.4-1.1-1.2-1.1c-0.6,0-1,0.2-1,0.6
				c0,0.4,0.1,0.6,1.7,1c3.1,0.7,3.6,1.7,3.6,3.1c0,1.9-1.3,3-4.2,3C87.6,25.2,86.7,23.9,86.5,22.4z"/>
		</g>
	</g>
	<g>
		<path class="st0" d="M32.3,17.4c0.8,0.8,0.8,2.2,0,3v0c-0.8,0.8-2.2,0.8-3,0L21.9,13c-0.8-0.8-2.2-0.8-3,0l-7.4,7.4
			c-0.8,0.8-2.2,0.8-3,0l0,0c-0.8-0.8-0.8-2.2,0-3L20.4,5.5l0,0l0,0L32.3,17.4z"/>
		<path class="st0" d="M20.4,13.3L20.4,13.3l-7.9,7.9c-0.8,0.8-0.8,2.2,0,3l0,0c0.8,0.8,2.2,0.8,3,0l3.4-3.4c0.8-0.8,2.2-0.8,3,0
			l3.4,3.4c0.8,0.8,2.2,0.8,3,0l0,0c0.8-0.8,0.8-2.2,0-3L20.4,13.3L20.4,13.3z"/>
		<path class="st0" d="M15.6,26.9c0-0.4,0.1-0.7,0.3-1c0,0,0,0,0-0.1c0.1-0.1,0.2-0.3,0.3-0.4l4.3-4.3l4.3,4.3
			c0.1,0.1,0.2,0.2,0.3,0.4c0,0,0,0,0,0.1c0.2,0.3,0.3,0.7,0.3,1c0,1.2-0.9,2.1-2.1,2.1c-0.3,0-0.7-0.1-1-0.2c0,0,0,0,0,0
			c-0.2-0.1-0.3-0.2-0.5-0.3c-0.3-0.3-0.8-0.5-1.3-0.5s-0.9,0.2-1.3,0.5c-0.1,0.1-0.3,0.2-0.5,0.3c0,0,0,0,0,0
			c-0.3,0.1-0.6,0.2-1,0.2C16.5,29,15.6,28.1,15.6,26.9z"/>
	</g>
</g>
</svg>
